<svg xmlns="http://www.w3.org/2000/svg"  viewBox="0 0 64 64" width="256px" height="256px"><linearGradient id="6rN1SvEHk6UBti10TtUb6a" x1="32" x2="32" y1="8.25" y2="55.193" gradientUnits="userSpaceOnUse" spreadMethod="reflect"><stop offset="0" stop-color="#1a6dff"/><stop offset="1" stop-color="#c822ff"/></linearGradient><path fill="url(#6rN1SvEHk6UBti10TtUb6a)" d="M53,15H39.618L38,11.764C37.146,10.059,35.434,9,33.528,9h-12H18h-7c-2.757,0-5,2.243-5,5v30 v2v4c0,2.757,2.243,5,5,5h42c2.757,0,5-2.243,5-5v-4v-2V20C58,17.243,55.757,15,53,15z M36.211,12.658L37.382,15h-7.91 c-1.143,0-2.171-0.636-2.683-1.658L26,11.764c-0.137-0.274-0.304-0.525-0.483-0.764h8.011C34.671,11,35.699,11.636,36.211,12.658z M53,53H11c-1.654,0-3-1.346-3-3v-0.026C8.838,50.609,9.87,51,11,51h7v-1c0-1.805,1.398-2,2-2s2,0.195,2,2v1h20v-1 c0-1.805,1.398-2,2-2s2,0.195,2,2v1h7c1.13,0,2.162-0.391,3-1.026V50C56,51.654,54.654,53,53,53z M56,46c0,1.654-1.346,3-3,3h-5.102 c-0.387-1.83-1.857-3-3.898-3s-3.512,1.17-3.898,3H23.898c-0.387-1.83-1.857-3-3.898-3s-3.512,1.17-3.898,3H11c-1.654,0-3-1.346-3-3 v-2V14c0-1.654,1.346-3,3-3h7h3.528c1.143,0,2.171,0.636,2.683,1.658L25,14.236C25.854,15.941,27.566,17,29.472,17H53 c1.654,0,3,1.346,3,3v24V46z"/><linearGradient id="6rN1SvEHk6UBti10TtUb6b" x1="21" x2="21" y1="8.25" y2="55.193" gradientUnits="userSpaceOnUse" spreadMethod="reflect"><stop offset="0" stop-color="#1a6dff"/><stop offset="1" stop-color="#c822ff"/></linearGradient><path fill="url(#6rN1SvEHk6UBti10TtUb6b)" d="M26.327,31.75C26.754,30.926,27,29.992,27,29v-2c0-3.309-2.691-6-6-6s-6,2.691-6,6v2 c0,0.991,0.246,1.925,0.673,2.75C13.385,33.434,12,36.117,12,39v2h18v-2C30,36.117,28.615,33.433,26.327,31.75z M17,27 c0-2.206,1.794-4,4-4s4,1.794,4,4v2c0,2.206-1.794,4-4,4s-4-1.794-4-4V27z M14,39c0-2.25,1.085-4.343,2.878-5.652 C17.954,34.369,19.403,35,21,35c1.597,0,3.047-0.631,4.123-1.652C26.914,34.657,28,36.75,28,39H14z"/><linearGradient id="6rN1SvEHk6UBti10TtUb6c" x1="42" x2="42" y1="8.25" y2="55.193" gradientUnits="userSpaceOnUse" spreadMethod="reflect"><stop offset="0" stop-color="#1a6dff"/><stop offset="1" stop-color="#c822ff"/></linearGradient><path fill="url(#6rN1SvEHk6UBti10TtUb6c)" d="M36 30H48V32H36z"/><linearGradient id="6rN1SvEHk6UBti10TtUb6d" x1="44" x2="44" y1="8.25" y2="55.193" gradientUnits="userSpaceOnUse" spreadMethod="reflect"><stop offset="0" stop-color="#1a6dff"/><stop offset="1" stop-color="#c822ff"/></linearGradient><path fill="url(#6rN1SvEHk6UBti10TtUb6d)" d="M36 26H52V28H36z"/><linearGradient id="6rN1SvEHk6UBti10TtUb6e" x1="44" x2="44" y1="8.25" y2="55.193" gradientUnits="userSpaceOnUse" spreadMethod="reflect"><stop offset="0" stop-color="#1a6dff"/><stop offset="1" stop-color="#c822ff"/></linearGradient><path fill="url(#6rN1SvEHk6UBti10TtUb6e)" d="M36 22H52V24H36z"/><linearGradient id="6rN1SvEHk6UBti10TtUb6f" x1="42" x2="42" y1="33.625" y2="40.876" gradientUnits="userSpaceOnUse" spreadMethod="reflect"><stop offset="0" stop-color="#6dc7ff"/><stop offset="1" stop-color="#e6abff"/></linearGradient><path fill="url(#6rN1SvEHk6UBti10TtUb6f)" d="M48,39c0,0.552-0.448,1-1,1H37c-0.552,0-1-0.448-1-1v-4c0-0.552,0.448-1,1-1h10 c0.552,0,1,0.448,1,1V39z"/></svg>