<svg xmlns="http://www.w3.org/2000/svg"  viewBox="0 0 520 520" width="130px" height="130px"><path fill="#9bc9ff" d="M490,140v258.5c0,17.4-14.1,31.5-31.5,31.5H324.141c-4.53,0-8.96,0.9-13.061,2.6 c-4.11,1.7-7.88,4.2-11.08,7.4c-6.41,6.4-15.09,10-24.14,10h-31.72c-8.829,0-17.593-3.451-24.141-10c-6.399-6.4-15.09-10-24.14-10 H61.5C44.101,430,30,415.9,30,398.5V140C30.107,140,489.9,140,490,140z"/><path fill="#fff" d="M450,390v0.19c-65.99,14.659-82.319-19.181-189.95,9.8L260,399.81V110 c12.9-3.48,27.32-5.9,37.84-7.51c-5,9.02-7.84,19.4-7.84,30.44c0,16.84,6.62,32.15,17.41,43.45c11.45,12,27.61,19.48,45.521,19.48 c17.899,0,34.06-7.48,45.52-19.48c10.78-11.3,17.41-26.61,17.41-43.45c0-7.29-1.24-14.3-3.53-20.81 c10.42,0.71,24.37,0.84,37.67-2.12v30V390z"/><path fill="#9bc9ff" d="M375,455c8.28,0,15,6.72,15,15s-6.72,15-15,15c-8.29,0-15-6.72-15-15S366.71,455,375,455z"/><path fill="#9bc9ff" d="M110,35c13.81,0,25,11.19,25,25s-11.19,25-25,25c-13.81,0-25-11.19-25-25S96.19,35,110,35z"/><rect width="130" height="35" x="290" y="280" fill="#9bc9ff"/><rect width="130" height="35" x="290" y="220" fill="#9bc9ff"/><path fill="#fff" d="M260,399.81l0.05,0.181c-0.02,0-0.029,0.01-0.05,0.01c-107.67-29-124,4.85-190-9.81V390V140v-30 c66,14.67,82.33-29,190,0V399.81z"/><path fill="#fff" d="M352.931,156.9c10.34,0,20.109,2.5,28.72,6.92c-5.65,19.12-16.4,32.04-28.72,32.04V156.9z"/><path fill="#fff" d="M324.21,163.83c5.65,19.12,16.391,32.03,28.721,32.03c-17.91,0-34.07-7.48-45.521-19.48l0.17-0.17 C312.38,171.22,318,167.02,324.21,163.83z"/><path fill="#fff" d="M352.931,132.93v23.97c-10.351,0-20.11,2.5-28.721,6.93c-2.71-9.13-4.25-19.67-4.25-30.9H352.931z"/><path fill="#fff" d="M385.891,132.93h29.97c0,16.84-6.63,32.15-17.41,43.45c-4.84-5.07-10.52-9.33-16.8-12.56 C384.351,154.69,385.891,144.15,385.891,132.93z"/><path fill="#fff" d="M352.931,70c17.899,0,34.06,7.48,45.52,19.48c-4.84,5.07-10.52,9.33-16.8,12.56 C376,82.91,365.25,70,352.931,70z"/><path fill="#fff" d="M385.891,132.93h-32.96v-23.97c10.34,0,20.109-2.5,28.72-6.92 C384.351,111.16,385.891,121.7,385.891,132.93z"/><path fill="#fff" d="M352.931,70v38.96c-10.351,0-20.11-2.5-28.721-6.93C329.86,82.91,340.601,70,352.931,70z"/><path fill="#fff" d="M324.21,102.03c-2.71,9.12-4.25,19.67-4.25,30.9H290c0-11.04,2.84-21.42,7.84-30.44 c2.62-4.75,5.851-9.12,9.57-13.01C312.25,94.55,317.92,98.81,324.21,102.03z"/><path fill="#9bc9ff" d="M398.45,176.38c-11.46,12-27.62,19.48-45.52,19.48c12.319,0,23.069-12.92,28.72-32.04 C387.931,167.05,393.61,171.31,398.45,176.38z"/><circle cx="472.5" cy="77.5" r="7.5" fill="#1e81ce"/><circle cx="442.5" cy="472.5" r="7.5" fill="#1e81ce"/><path fill="#9bc9ff" d="M415.86,132.93h-29.97c0-11.23-1.54-21.77-4.24-30.89c6.28-3.23,11.96-7.49,16.8-12.56 c6.12,6.41,10.89,14.1,13.88,22.64C414.62,118.63,415.86,125.64,415.86,132.93z"/><path fill="#9bc9ff" d="M352.931,132.93h32.96c0,11.22-1.54,21.76-4.24,30.89c-8.61-4.42-18.38-6.92-28.72-6.92V132.93z"/><path fill="#9bc9ff" d="M381.65,102.04c-8.61,4.42-18.38,6.92-28.72,6.92V70C365.25,70,376,82.91,381.65,102.04z"/><path fill="#9bc9ff" d="M352.931,156.9v38.96c-12.33,0-23.07-12.91-28.721-32.03C332.82,159.4,342.58,156.9,352.931,156.9z"/><path fill="#9bc9ff" d="M352.931,108.96v23.97H319.96c0-11.23,1.54-21.78,4.25-30.9 C332.82,106.46,342.58,108.96,352.931,108.96z"/><path fill="#9bc9ff" d="M352.931,70c-12.33,0-23.07,12.91-28.721,32.03c-6.29-3.22-11.96-7.48-16.8-12.55 C318.86,77.48,335.02,70,352.931,70z"/><path fill="#9bc9ff" d="M319.96,132.93c0,11.23,1.54,21.77,4.25,30.9c-6.21,3.19-11.83,7.39-16.63,12.38l-0.17,0.17 c-10.79-11.3-17.41-26.61-17.41-43.45H319.96z"/><circle cx="312.5" cy="462.5" r="7.5" fill="#1e81ce"/><circle cx="267.5" cy="42.5" r="7.5" fill="#1e81ce"/><circle cx="177.5" cy="62.5" r="7.5" fill="#1e81ce"/><circle cx="112.5" cy="452.5" r="7.5" fill="#1e81ce"/><circle cx="42.5" cy="92.5" r="7.5" fill="#1e81ce"/><path fill="#1e81ce" d="M70,395c-2.761,0-5-2.238-5-5V110c0-1.517,0.688-2.951,1.872-3.9 c1.183-0.949,2.733-1.31,4.213-0.98c27.076,6.018,45.183,1.881,66.147-2.911c28.67-6.551,61.166-13.978,124.068,2.963 c2.666,0.718,4.245,3.462,3.527,6.128c-0.718,2.666-3.461,4.246-6.128,3.528c-60.501-16.296-91.707-9.163-119.24-2.871 c-19.72,4.507-38.422,8.781-64.46,4.144V390C75,392.762,72.762,395,70,395z"/><path fill="#1e81ce" d="M260.003,405.001c-0.43,0-0.867-0.056-1.303-0.173c-61.083-16.452-92.477-12.336-120.177-8.702 c-20.972,2.749-40.78,5.349-69.607-1.055c-2.695-0.599-4.396-3.27-3.797-5.965c0.6-2.696,3.273-4.394,5.965-3.797 c27.107,6.021,45.195,3.647,66.14,0.901c28.625-3.755,61.068-8.01,124.077,8.961c2.666,0.719,4.245,3.462,3.527,6.129 C264.228,403.531,262.208,405.001,260.003,405.001z"/><path fill="#1e81ce" d="M260,405c-2.761,0-5-2.238-5-5c0-2.387,1.672-4.383,3.908-4.881 c62.873-16.907,95.279-12.656,123.871-8.907c20.942,2.747,39.03,5.12,66.137-0.902c2.696-0.598,5.366,1.101,5.965,3.797 c0.6,2.695-1.101,5.366-3.796,5.965c-28.827,6.405-48.635,3.806-69.607,1.056c-27.69-3.633-59.074-7.749-120.129,8.691 c-0.117,0.031-0.235,0.059-0.354,0.082C260.666,404.966,260.329,405,260,405z"/><path fill="#1e81ce" d="M275.86,455h-31.72c-5.164,0-10.202-1.003-14.975-2.98c-4.772-1.975-9.047-4.829-12.701-8.484 C211.041,438.111,203.53,435,195.86,435H61.5C41.374,435,25,418.626,25,398.5V140c0-2.761,2.239-5,5-5h40c2.762,0,5,2.239,5,5 s-2.238,5-5,5H35v253.5c0,14.612,11.888,26.5,26.5,26.5h134.36c10.303,0,20.391,4.179,27.676,11.465 c2.72,2.721,5.901,4.845,9.455,6.315c3.556,1.474,7.306,2.22,11.149,2.22h31.72c7.774,0,15.093-3.032,20.607-8.538 c3.651-3.652,7.926-6.507,12.701-8.482c4.77-1.977,9.808-2.979,14.972-2.979H458.5c14.612,0,26.5-11.888,26.5-26.5V145h-35 c-2.761,0-5-2.239-5-5s2.239-5,5-5h40c2.762,0,5,2.239,5,5v258.5c0,20.126-16.374,36.5-36.5,36.5H324.141 c-3.844,0-7.594,0.746-11.147,2.219c-3.557,1.472-6.738,3.596-9.458,6.316C296.131,450.93,286.303,455,275.86,455z"/><path fill="#1e81ce" d="M352.931,200.86c-14.397,0-26.926-13.313-33.516-35.613c-2.914-9.817-4.455-20.994-4.455-32.317 c0-11.334,1.541-22.512,4.457-32.325C326.005,78.313,338.534,65,352.931,65c14.397,0,26.927,13.317,33.515,35.624 c2.907,9.82,4.445,20.993,4.445,32.306c0,11.302-1.537,22.474-4.445,32.308C379.853,187.543,367.325,200.86,352.931,200.86z M352.931,75c-9.428,0-18.819,11.166-23.926,28.447c-2.646,8.908-4.045,19.101-4.045,29.483c0,10.372,1.398,20.565,4.044,29.477 c5.107,17.287,14.499,28.453,23.927,28.453c9.425,0,18.816-11.17,23.925-28.457c2.64-8.926,4.035-19.117,4.035-29.473 c0-10.365-1.396-20.556-4.035-29.471C371.749,86.17,362.358,75,352.931,75z"/><path fill="#1e81ce" d="M352.931,113.96c-10.924,0-21.357-2.518-31.008-7.484c-6.745-3.452-12.848-8.01-18.129-13.543 c-1.907-1.998-1.834-5.163,0.164-7.069c1.997-1.907,5.162-1.833,7.069,0.164c4.506,4.72,9.707,8.606,15.461,11.552 c8.232,4.236,17.125,6.381,26.442,6.381c9.31,0,18.205-2.143,26.435-6.368c5.77-2.967,10.975-6.858,15.467-11.564 c1.907-1.998,5.072-2.071,7.069-0.164c1.997,1.907,2.071,5.072,0.164,7.069c-5.264,5.514-11.363,10.074-18.13,13.554 C374.412,111.377,363.691,113.96,352.931,113.96z"/><path fill="#1e81ce" d="M398.45,181.38c-1.318,0-2.635-0.518-3.617-1.547c-4.492-4.706-9.697-8.597-15.47-11.566 c-8.228-4.224-17.122-6.366-26.433-6.366c-9.317,0-18.21,2.145-26.433,6.376c-5.704,2.93-10.855,6.765-15.314,11.4 c-1.913,1.991-5.079,2.052-7.069,0.137c-1.99-1.915-2.052-5.08-0.138-7.07c5.225-5.432,11.265-9.927,17.949-13.361 c9.648-4.964,20.081-7.482,31.005-7.482c10.761,0,21.481,2.583,31.003,7.472c6.77,3.482,12.869,8.042,18.133,13.556 c1.907,1.998,1.834,5.163-0.164,7.069C400.935,180.921,399.691,181.38,398.45,181.38z"/><path fill="#1e81ce" d="M415.86,137.93H290c-2.761,0-5-2.239-5-5c0-2.761,2.239-5,5-5h125.86c2.761,0,5,2.239,5,5 C420.86,135.691,418.621,137.93,415.86,137.93z"/><path fill="#1e81ce" d="M352.931,200.86c-2.762,0-5-2.239-5-5V70c0-2.761,2.238-5,5-5c2.761,0,5,2.239,5,5v125.86 C357.931,198.621,355.691,200.86,352.931,200.86z"/><path fill="#1e81ce" d="M352.931,200.86c-18.749,0-36.199-7.468-49.138-21.028C291.675,167.141,285,150.484,285,132.93 c0-11.508,2.928-22.872,8.467-32.864c2.801-5.077,6.278-9.805,10.33-14.042C316.731,72.468,334.183,65,352.931,65 c18.736,0,36.186,7.467,49.136,21.027c6.732,7.052,11.773,15.275,14.983,24.441c2.527,7.186,3.811,14.745,3.811,22.462 c0,17.542-6.674,34.199-18.793,46.901C389.117,193.393,371.667,200.86,352.931,200.86z M352.931,75 c-15.988,0-30.87,6.368-41.902,17.932c-3.459,3.617-6.422,7.644-8.81,11.974c-4.724,8.521-7.218,18.209-7.218,28.025 c0,14.969,5.691,29.174,16.026,39.997c11.034,11.565,25.916,17.933,41.904,17.933c15.978,0,30.859-6.369,41.903-17.933 c10.334-10.832,16.026-25.037,16.026-39.997c0-6.584-1.093-13.027-3.247-19.151c-2.737-7.82-7.037-14.831-12.779-20.847 C383.79,81.369,368.908,75,352.931,75z"/><path fill="#1e81ce" d="M230,160h-90c-2.761,0-5-2.239-5-5s2.239-5,5-5h90c2.762,0,5,2.239,5,5S232.762,160,230,160z"/><path fill="#1e81ce" d="M230,185h-90c-2.761,0-5-2.239-5-5s2.239-5,5-5h90c2.762,0,5,2.239,5,5S232.762,185,230,185z"/><path fill="#1e81ce" d="M230,210h-90c-2.761,0-5-2.239-5-5s2.239-5,5-5h90c2.762,0,5,2.239,5,5S232.762,210,230,210z"/><path fill="#1e81ce" d="M230,235h-90c-2.761,0-5-2.239-5-5s2.239-5,5-5h90c2.762,0,5,2.239,5,5S232.762,235,230,235z"/><path fill="#1e81ce" d="M230,260h-90c-2.761,0-5-2.238-5-5c0-2.761,2.239-5,5-5h90c2.762,0,5,2.239,5,5 C235,257.762,232.762,260,230,260z"/><path fill="#1e81ce" d="M230,285H100c-2.761,0-5-2.238-5-5s2.239-5,5-5h130c2.762,0,5,2.238,5,5S232.762,285,230,285z"/><path fill="#1e81ce" d="M230,310H100c-2.761,0-5-2.238-5-5s2.239-5,5-5h130c2.762,0,5,2.238,5,5S232.762,310,230,310z"/><path fill="#1e81ce" d="M230,335H100c-2.761,0-5-2.238-5-5s2.239-5,5-5h130c2.762,0,5,2.238,5,5S232.762,335,230,335z"/><path fill="#1e81ce" d="M450,395c-2.761,0-5-2.238-5-5V116.033c-9.767,1.543-20.839,1.904-33.01,1.076 c-2.755-0.188-4.836-2.573-4.648-5.328c0.188-2.755,2.573-4.837,5.328-4.648c13.819,0.94,26.014,0.265,36.244-2.012 c1.48-0.332,3.031,0.031,4.214,0.979c1.184,0.949,1.872,2.384,1.872,3.901v280C455,392.762,452.762,395,450,395z"/><path fill="#1e81ce" d="M260,404.81c-2.761,0-5-2.238-5-5V110c0-2.26,1.516-4.239,3.698-4.828 c13.441-3.626,28.345-6.088,38.386-7.625c2.73-0.42,5.281,1.457,5.698,4.186c0.418,2.729-1.456,5.281-4.186,5.699 c-8.881,1.359-21.641,3.455-33.597,6.436V399.81C265,402.571,262.762,404.81,260,404.81z"/><path fill="#1e81ce" d="M110,90c-16.542,0-30-13.458-30-30s13.458-30,30-30s30,13.458,30,30S126.542,90,110,90z M110,40 c-11.027,0-20,8.972-20,20s8.973,20,20,20c11.028,0,20-8.972,20-20S121.028,40,110,40z"/><path fill="#1e81ce" d="M375,490c-11.027,0-20-8.972-20-20s8.973-20,20-20c11.028,0,20,8.972,20,20S386.028,490,375,490z M375,460c-5.514,0-10,4.486-10,10s4.486,10,10,10c5.515,0,10-4.486,10-10S380.515,460,375,460z"/><path fill="#1e81ce" d="M420,260H290c-2.761,0-5-2.238-5-5v-35c0-2.761,2.239-5,5-5h130c2.762,0,5,2.239,5,5v35 C425,257.762,422.762,260,420,260z M295,250h120v-25H295V250z"/><path fill="#1e81ce" d="M420,320H290c-2.761,0-5-2.238-5-5v-35c0-2.762,2.239-5,5-5h130c2.762,0,5,2.238,5,5v35 C425,317.762,422.762,320,420,320z M295,310h120v-25H295V310z"/></svg>