<svg xmlns="http://www.w3.org/2000/svg"  viewBox="0 0 40 40" width="480px" height="480px"><path fill="#f2faff" d="M6.5 2.5H31.5V35.5H6.5z"/><path fill="#788b9c" d="M31,3v32H7V3H31 M32,2H6v34h26V2L32,2z"/><path fill="#fff" d="M9.5 5.5H34.5V38.5H9.5z"/><path fill="#788b9c" d="M34,6v32H10V6H34 M35,5H9v34h26V5L35,5z"/><path fill="#d6e3ed" d="M34 21.64L34 36.329 35 35.438 35 22.554z"/><path fill="#c2e8ff" d="M16.522,26.5c0.253-2.8,2.613-5,5.478-5s5.224,2.2,5.478,5H16.522z"/><path fill="#7496c4" d="M22,22c2.415,0,4.435,1.721,4.9,4H17.1C17.565,23.721,19.585,22,22,22 M22,21c-3.314,0-6,2.686-6,6 h12C28,23.686,25.314,21,22,21L22,21z"/><g><path fill="#ffeea3" d="M22 12.5A3.5 3.5 0 1 0 22 19.5A3.5 3.5 0 1 0 22 12.5Z"/><path fill="#ba9b48" d="M22,13c1.654,0,3,1.346,3,3s-1.346,3-3,3s-3-1.346-3-3S20.346,13,22,13 M22,12 c-2.209,0-4,1.791-4,4s1.791,4,4,4s4-1.791,4-4S24.209,12,22,12L22,12z"/></g><g><path fill="#bae0bd" d="M31.5 31.5L24.5 31.5 24.5 26.5 31.5 26.5 31.5 22.113 39.248 29 31.5 35.887z"/><path fill="#5e9c76" d="M32,23.227L38.495,29L32,34.773V32v-1h-1h-6v-4h6h1v-1V23.227 M31,21v5h-7v6h7v5l9-8L31,21L31,21z"/></g></svg>